<?xml version="1.0" encoding="UTF-8"?>
<svg width="24px" height="18px" viewBox="0 0 24 18" version="1.1" xmlns="http://www.w3.org/2000/svg" xmlns:xlink="http://www.w3.org/1999/xlink">
    <title>twitter</title>
    <g stroke="none" stroke-width="1" fill-rule="evenodd">
        <g fill-rule="nonzero">
            <path d="M16.0361,0.00399556 L16.0361,0 L17.1614,0 L17.5726,0.0759156 C17.8467,0.125201 18.0956,0.189789 18.3192,0.2697 C18.5428,0.349612 18.7593,0.442848 18.9684,0.54939 C19.1776,0.655931 19.3674,0.764491 19.5376,0.875028 C19.7064,0.984246 19.8579,1.10012 19.9921,1.22264 C20.1248,1.3465 20.3318,1.37847 20.6132,1.31853 C20.8945,1.2586 21.1975,1.17535 21.5221,1.06881 C21.8467,0.962271 22.1677,0.842404 22.4851,0.709212 C22.8025,0.57602 22.9959,0.491454 23.0651,0.455494 C23.1329,0.418215 23.169,0.398237 23.1733,0.39556 L23.1776,0.389567 L23.1993,0.379578 L23.2209,0.369589 L23.2426,0.3596 L23.2642,0.349612 L23.2685,0.343618 L23.275,0.339623 L23.2815,0.335627 L23.2858,0.329634 L23.3075,0.32364 L23.3291,0.319645 L23.3248,0.349612 L23.3183,0.379578 L23.3075,0.409545 L23.2967,0.439512 L23.2858,0.459489 L23.275,0.479467 L23.2642,0.509434 C23.257,0.529412 23.2498,0.556042 23.2426,0.589345 C23.2354,0.622648 23.1668,0.75582 23.037,0.988901 C22.9071,1.22198 22.7448,1.45838 22.55,1.69811 C22.3553,1.93785 22.1807,2.11897 22.0264,2.24151 C21.8705,2.36537 21.7674,2.45194 21.7169,2.50122 C21.6664,2.55182 21.6051,2.59843 21.5329,2.64107 L21.4247,2.70699 L21.4031,2.71698 L21.3814,2.72697 L21.3771,2.73296 L21.3706,2.73696 L21.3641,2.74095 L21.3598,2.74695 L21.3381,2.75694 L21.3165,2.76693 L21.3122,2.77292 L21.3057,2.77691 L21.2992,2.78091 L21.2949,2.7869 L21.2906,2.7929 L21.284,2.79689 L21.2775,2.80089 L21.2732,2.80688 L21.3814,2.80688 L21.9874,2.68701 C22.3914,2.6071 22.7773,2.51055 23.1452,2.39734 L23.7295,2.21754 L23.7944,2.19756 L23.8269,2.18757 L23.8485,2.17758 L23.8702,2.16759 L23.8918,2.1576 L23.9134,2.14761 L23.9567,2.14162 L24,2.13762 L24,2.17758 L23.9892,2.18158 L23.9784,2.18757 L23.9741,2.19356 L23.9675,2.19756 L23.961,2.20155 L23.9567,2.20755 L23.9524,2.21354 L23.9459,2.21754 L23.9394,2.22153 L23.9351,2.22752 L23.9308,2.23352 L23.9243,2.23751 L23.9134,2.25749 L23.9026,2.27747 L23.8961,2.28147 C23.8932,2.28546 23.8016,2.39865 23.6213,2.62109 C23.4409,2.84484 23.3436,2.95803 23.3291,2.96071 C23.3147,2.96471 23.2945,2.98468 23.2685,3.02064 C23.244,3.05792 23.0911,3.20644 22.8097,3.46615 C22.5284,3.72586 22.2529,3.95692 21.9831,4.15938 C21.7118,4.36315 21.5748,4.61353 21.5719,4.91054 C21.5676,5.20622 21.551,5.54052 21.5221,5.91343 C21.4932,6.28636 21.4391,6.68923 21.3598,7.12209 C21.2804,7.55495 21.1578,8.0444 20.9919,8.59046 C20.826,9.13651 20.624,9.66926 20.3859,10.1887 C20.1479,10.7081 19.899,11.1742 19.6393,11.5871 C19.3796,12 19.1416,12.3496 18.9252,12.636 C18.7087,12.9223 18.4887,13.192 18.2651,13.4451 C18.0415,13.6981 17.7587,13.9831 17.4168,14.3001 C17.0734,14.6158 16.8859,14.7889 16.8541,14.8195 C16.8209,14.8488 16.6796,14.9581 16.4299,15.1472 C16.1818,15.3376 15.9149,15.5281 15.6292,15.7185 C15.345,15.9077 15.0839,16.0655 14.8458,16.192 C14.6078,16.3185 14.3207,16.463 13.9845,16.6255 C13.6498,16.7893 13.2876,16.9412 12.8981,17.081 C12.5086,17.2209 12.0974,17.3507 11.6646,17.4706 C11.2317,17.5905 10.8134,17.6837 10.4094,17.7503 C10.0054,17.8169 9.54735,17.8735 9.03517,17.9201 L8.26691,17.99 L8.26691,18 L6.86023,18 L6.86023,17.99 L6.67628,17.98 C6.55367,17.9734 6.45267,17.9667 6.37331,17.96 C6.29397,17.9534 5.99459,17.9168 5.4752,17.8502 C4.95582,17.7836 4.54825,17.717 4.25248,17.6504 C3.95673,17.5838 3.51668,17.4573 2.93237,17.2708 C2.34806,17.0844 1.84815,16.8959 1.43264,16.7054 C1.01858,16.5163 0.758889,16.3964 0.653562,16.3458 C0.549684,16.2966 0.432822,16.2353 0.302976,16.162 L0.108206,16.0522 L0.103899,16.0462 L0.097385,16.0422 L0.0908927,16.0382 L0.0865645,16.0322 L0.0649234,16.0222 L0.0432822,16.0122 L0.0389757,16.0062 L0.0324617,16.0022 L0.0259693,15.9982 L0.0216411,15.9922 L0.0173345,15.9862 L0.0108206,15.9822 L0,15.9822 L0,15.9423 L0.0216411,15.9463 L0.0432822,15.9523 L0.140667,15.9623 C0.205591,15.9689 0.382334,15.9789 0.670875,15.9922 C0.959437,16.0056 1.26601,16.0056 1.59062,15.9922 C1.91524,15.9789 2.24708,15.9489 2.58611,15.9023 C2.92516,15.8557 3.32553,15.7758 3.7872,15.6626 C4.24889,15.5494 4.67305,15.4149 5.05971,15.259 C5.44493,15.1019 5.71903,14.9847 5.88208,14.9074 C6.04365,14.8315 6.29036,14.6903 6.62218,14.4839 L7.11993,14.1743 L7.12426,14.1683 L7.13075,14.1643 L7.13726,14.1603 L7.14157,14.1543 L7.1459,14.1483 L7.15239,14.1443 L7.1589,14.1403 L7.16321,14.1343 L7.18485,14.1283 L7.20649,14.1243 L7.21082,14.1043 L7.21731,14.0844 L7.22383,14.0804 L7.22813,14.0744 L7.055,14.0644 C6.93959,14.0577 6.82777,14.051 6.71957,14.0444 C6.61136,14.0377 6.44185,14.0078 6.211,13.9545 C5.98018,13.9012 5.7313,13.8213 5.46438,13.7148 C5.19748,13.6082 4.93779,13.4817 4.6853,13.3352 C4.43284,13.1887 4.25032,13.0668 4.13778,12.9696 C4.0267,12.8737 3.88242,12.7378 3.70496,12.562 C3.52895,12.3849 3.37601,12.2031 3.24617,12.0166 C3.11632,11.8302 2.99225,11.6151 2.87396,11.3714 L2.69432,11.0078 L2.6835,10.9778 L2.67268,10.9478 L2.66619,10.9279 L2.66186,10.9079 L2.69432,10.9119 L2.72678,10.9179 L2.96483,10.9478 C3.12355,10.9678 3.37242,10.9745 3.71145,10.9678 C4.0505,10.9612 4.28494,10.9478 4.41479,10.9279 C4.54463,10.9079 4.62399,10.8946 4.65284,10.8879 L4.69612,10.8779 L4.75023,10.8679 L4.80433,10.8579 L4.80866,10.8519 L4.81515,10.8479 L4.82166,10.844 L4.82597,10.838 L4.78269,10.828 L4.7394,10.818 L4.69612,10.808 L4.65284,10.798 L4.60956,10.788 C4.58071,10.7814 4.53022,10.768 4.45807,10.7481 C4.38594,10.7281 4.19117,10.6548 3.87376,10.5283 C3.55637,10.4018 3.30388,10.2786 3.11632,10.1587 C2.92829,10.0385 2.74901,9.90703 2.57962,9.76515 C2.41082,9.62131 2.22544,9.43618 2.02344,9.20977 C1.82147,8.98336 1.64113,8.72031 1.48242,8.42064 C1.32372,8.12098 1.2047,7.83463 1.12534,7.5616 C1.0463,7.29017 0.994153,7.01267 0.969544,6.73252 L0.930568,6.31299 L0.952209,6.31698 L0.97385,6.32297 L0.995491,6.33296 L1.01713,6.34295 L1.03877,6.35294 L1.06041,6.36293 L1.39585,6.50277 C1.61949,6.59601 1.89721,6.67592 2.22904,6.74251 C2.56088,6.80909 2.75924,6.84573 2.82417,6.85239 L2.92155,6.86238 L3.11632,6.86238 L3.11201,6.85638 L3.1055,6.85239 L3.09901,6.84839 L3.09468,6.8424 L3.09037,6.8364 L3.08386,6.83241 L3.07737,6.82841 L3.07304,6.82242 L3.0514,6.81243 L3.02976,6.80244 L3.02545,6.79645 L3.01894,6.79245 L3.01244,6.78846 L3.00812,6.78246 L2.98647,6.77248 L2.96483,6.76249 L2.96053,6.75649 C2.9562,6.75382 2.89415,6.7112 2.77439,6.62863 C2.65608,6.54473 2.53201,6.43619 2.40216,6.303 C2.27232,6.1698 2.14247,6.02996 2.01262,5.88346 C1.88254,5.73663 1.76667,5.57953 1.66637,5.41398 C1.56539,5.24751 1.45861,5.03572 1.34608,4.77869 C1.23499,4.52297 1.15059,4.26526 1.09288,4.00555 C1.03518,3.74584 1.00272,3.48946 0.995491,3.2364 C0.988285,2.98335 0.995491,2.76693 1.01713,2.58713 C1.03877,2.40733 1.08206,2.20421 1.14698,1.9778 C1.2119,1.75139 1.3057,1.51166 1.42831,1.2586 L1.61226,0.879023 L1.62308,0.849057 L1.6339,0.81909 L1.64042,0.815094 L1.64472,0.809101 L1.64905,0.803108 L1.65555,0.799112 L1.66206,0.803108 L1.66637,0.809101 L1.67069,0.815094 L1.67719,0.81909 L1.6837,0.823085 L1.68801,0.829079 L1.69234,0.835072 L1.69883,0.839068 L1.70965,0.859046 L1.72047,0.879023 L1.72698,0.883019 L1.73129,0.889012 L2.02344,1.18868 C2.21821,1.38846 2.44906,1.61155 2.71596,1.85794 C2.98288,2.10432 3.13076,2.23218 3.1596,2.24151 C3.18847,2.25216 3.22453,2.28278 3.26781,2.33341 C3.31109,2.38269 3.45537,2.50056 3.70063,2.68701 C3.94591,2.87347 4.26691,3.08991 4.66366,3.33629 C5.06043,3.58268 5.50046,3.82575 5.98377,4.06548 C6.4671,4.30522 6.98649,4.52164 7.54193,4.71476 C8.09739,4.90789 8.48693,5.03441 8.71055,5.09434 C8.93419,5.15427 9.3165,5.23085 9.85753,5.32408 C10.3986,5.41732 10.8061,5.47725 11.0803,5.50388 C11.3544,5.53052 11.5419,5.54584 11.6429,5.54983 L11.7944,5.55383 L11.7901,5.52386 L11.7836,5.4939 L11.7403,5.24417 C11.7115,5.0777 11.697,4.84462 11.697,4.54495 C11.697,4.24528 11.7223,3.96893 11.7728,3.71587 C11.8233,3.46281 11.899,3.20644 12,2.94673 C12.101,2.68701 12.1998,2.47857 12.2965,2.32142 C12.3946,2.16559 12.523,1.98779 12.6817,1.78801 C12.8404,1.58824 13.046,1.3818 13.2985,1.1687 C13.551,0.955598 13.8395,0.765809 14.1641,0.599334 C14.4887,0.432859 14.7881,0.30632 15.0622,0.219756 C15.3363,0.133192 15.5672,0.0765749 15.7547,0.0499445 C15.9423,0.0233141 16.0361,0.00799112 16.0361,0.00399556 Z" id="path0_fill"></path>
        </g>
    </g>
</svg>