<svg xmlns="http://www.w3.org/2000/svg"><symbol id="twitter" viewBox="0 0 24 18"><title>twitter</title><path d="M16.036.004V0h1.125l.412.076c.274.05.523.114.746.194.224.08.44.173.65.28.209.106.398.214.569.325.168.11.32.225.454.348.133.123.34.155.621.096.282-.06.585-.144.91-.25.324-.107.645-.227.962-.36.317-.133.51-.218.58-.254l.108-.06.005-.005.021-.01.022-.01.022-.01.021-.01.005-.006.006-.004.007-.004.004-.006.021-.006.022-.004-.004.03-.007.03-.01.03-.011.03-.011.02-.011.02-.01.03a.649.649 0 0 0-.022.08c-.008.033-.076.166-.206.399s-.292.47-.487.71c-.195.239-.37.42-.524.543-.155.123-.259.21-.31.26a.917.917 0 0 1-.183.14l-.108.065-.022.01-.022.01-.004.006-.006.004-.007.004-.004.006-.022.01-.021.01-.005.006-.006.004-.007.004-.004.006-.004.006-.007.004-.006.004-.005.006h.108l.606-.12c.404-.08.79-.176 1.158-.29l.585-.18.064-.02.033-.01.021-.01.022-.01.022-.01.021-.01.044-.005.043-.004v.04l-.01.004-.012.006-.004.006-.006.004-.007.004-.004.006-.005.006-.006.004-.007.004-.004.006-.004.006-.007.004-.01.02-.011.02-.007.003a97.5 97.5 0 0 1-.275.34c-.18.224-.277.337-.292.34-.014.004-.035.024-.06.06-.025.037-.178.185-.46.445-.28.26-.556.49-.826.693-.271.204-.408.455-.411.752-.004.295-.021.63-.05 1.002-.029.373-.083.776-.162 1.21-.08.432-.202.921-.368 1.467a12.671 12.671 0 0 1-.606 1.599c-.238.52-.487.985-.747 1.398-.26.413-.497.763-.714 1.049-.216.286-.436.556-.66.81-.224.252-.506.537-.848.854-.344.316-.531.489-.563.52-.033.029-.174.138-.424.327-.248.19-.515.381-.8.572-.285.189-.546.347-.784.473-.238.127-.525.271-.861.433-.335.164-.697.316-1.087.456s-.8.27-1.233.39c-.433.12-.852.213-1.256.28-.404.066-.862.122-1.374.17l-.768.069V18H6.86v-.01l-.184-.01a10.304 10.304 0 0 1-.303-.02 38.33 38.33 0 0 1-.898-.11c-.52-.066-.927-.133-1.223-.2a17.221 17.221 0 0 1-1.32-.38 13.45 13.45 0 0 1-1.5-.565c-.413-.189-.673-.309-.778-.36-.104-.048-.221-.11-.351-.183l-.195-.11-.004-.006-.007-.004-.006-.004-.004-.006-.022-.01-.022-.01-.004-.006-.007-.004-.006-.004-.004-.006-.005-.006-.006-.004H0v-.04l.022.004.021.006.098.01c.065.007.241.017.53.03a10.517 10.517 0 0 0 3.116-.33 9.374 9.374 0 0 0 1.273-.403c.385-.157.659-.274.822-.352.162-.075.408-.217.74-.423l.498-.31.004-.006.007-.004.006-.004.005-.006.004-.006.006-.004.007-.004.004-.006.022-.006.021-.004.005-.02.006-.02.007-.004.004-.006-.173-.01-.335-.02a3.501 3.501 0 0 1-.509-.09 5.169 5.169 0 0 1-.747-.24 5.943 5.943 0 0 1-.779-.379 3.838 3.838 0 0 1-.547-.365 9.153 9.153 0 0 1-.433-.408 4.097 4.097 0 0 1-.831-1.19l-.18-.364-.01-.03-.011-.03-.007-.02-.004-.02.032.004.033.006.238.03c.159.02.407.027.746.02.34-.007.574-.02.704-.04s.209-.033.238-.04l.043-.01.054-.01.054-.01.005-.006.006-.004.007-.004.004-.006-.043-.01-.044-.01-.043-.01-.043-.01-.043-.01a4.254 4.254 0 0 1-.152-.04 8.751 8.751 0 0 1-.584-.22 4.6 4.6 0 0 1-.758-.37 5.185 5.185 0 0 1-.536-.393 5.86 5.86 0 0 1-.557-.555 3.969 3.969 0 0 1-.54-.79 4.579 4.579 0 0 1-.358-.858 4.315 4.315 0 0 1-.155-.83l-.04-.419.022.004.022.006.021.01.022.01.022.01.021.01.336.14c.223.093.501.173.833.24.332.066.53.103.595.11l.098.01h.194l-.004-.007-.006-.004-.007-.004-.004-.006-.005-.006-.006-.004-.007-.004-.004-.006-.022-.01-.021-.01-.005-.006-.006-.004-.007-.004-.004-.006-.022-.01-.021-.01-.004-.006a26.421 26.421 0 0 1-.187-.127 2.759 2.759 0 0 1-.372-.326c-.13-.133-.26-.273-.39-.42a3.24 3.24 0 0 1-.346-.469 5.5 5.5 0 0 1-.32-.635 4.254 4.254 0 0 1-.253-.773 4.473 4.473 0 0 1-.076-1.418c.022-.18.065-.384.13-.61.065-.227.159-.466.281-.72L1.612.88l.011-.03.01-.03.007-.004.005-.006.004-.006L1.656.8l.006.004.004.006.005.006.006.004.007.004.004.006.004.006L1.7.84l.01.02.011.02.007.004.004.006.292.3c.195.2.426.423.693.669.267.246.415.374.444.384a.31.31 0 0 1 .108.091c.043.05.187.168.433.354.245.186.566.403.963.65.396.246.836.489 1.32.728.483.24 1.002.457 1.558.65.555.193.945.32 1.169.38.223.06.605.136 1.147.23.54.092.948.152 1.222.179.274.027.462.042.563.046l.151.004-.004-.03-.006-.03-.044-.25a4.344 4.344 0 0 1-.043-.699c0-.3.025-.576.076-.83.05-.252.126-.509.227-.768.101-.26.2-.468.296-.626.099-.155.227-.333.386-.533.158-.2.364-.406.617-.62.252-.212.54-.402.865-.569.325-.166.624-.293.898-.38.274-.086.505-.142.693-.17.187-.026.281-.041.281-.045z" fill-rule="nonzero"/></symbol></svg>